<?xml version="1.0" encoding="UTF-8" standalone="no"?>
<!DOCTYPE svg PUBLIC "-//W3C//DTD SVG 1.0//EN" "http://www.w3.org/TR/2001/PR-SVG-20010719/DTD/svg10.dtd">
<svg width="73cm" height="34cm" viewBox="59 39 1443 671" xmlns="http://www.w3.org/2000/svg" xmlns:xlink="http://www.w3.org/1999/xlink">
  <g id="Background">
    <g>
      <rect style="fill: #ffffff; fill-opacity: 1; stroke-opacity: 1; stroke-width: 2; stroke: #000000" x="660" y="280" width="181" height="69" rx="0" ry="0"/>
      <text font-size="12.8" style="fill: #000000; fill-opacity: 1; stroke: none;text-anchor:middle;font-family:sans-serif;font-style:normal;font-weight:normal" x="750.5" y="318.4">
        <tspan x="750.5" y="318.4">DataLdr</tspan>
      </text>
    </g>
    <g>
      <rect style="fill: #ffffff; fill-opacity: 1; stroke-opacity: 1; stroke-width: 2; stroke: #000000" x="460" y="400" width="181" height="69" rx="0" ry="0"/>
      <text font-size="12.8" style="fill: #000000; fill-opacity: 1; stroke: none;text-anchor:middle;font-family:sans-serif;font-style:normal;font-weight:normal" x="550.5" y="438.4">
        <tspan x="550.5" y="438.4">Data2D</tspan>
      </text>
    </g>
    <g>
      <polyline style="fill: none; stroke-opacity: 1; stroke-width: 2; stroke: #000000" points="705.25,361.236 705.25,374.5 550.5,374.5 550.5,400 "/>
      <polygon style="fill: none; stroke-opacity: 1; stroke-width: 2; stroke: #000000" points="710.25,361.236 705.25,351.236 700.25,361.236 "/>
    </g>
    <g>
      <rect style="fill: #ffffff; fill-opacity: 1; stroke-opacity: 1; stroke-width: 2; stroke: #000000" x="160" y="520" width="181" height="69" rx="0" ry="0"/>
      <text font-size="12.8" style="fill: #000000; fill-opacity: 1; stroke: none;text-anchor:middle;font-family:sans-serif;font-style:normal;font-weight:normal" x="250.5" y="558.4">
        <tspan x="250.5" y="558.4">XyBase</tspan>
      </text>
    </g>
    <g>
      <polyline style="fill: none; stroke-opacity: 1; stroke-width: 2; stroke: #000000" points="505.25,481.236 505.25,494.5 250.5,494.5 250.5,520 "/>
      <polygon style="fill: none; stroke-opacity: 1; stroke-width: 2; stroke: #000000" points="510.25,481.236 505.25,471.236 500.25,481.236 "/>
    </g>
    <g>
      <rect style="fill: #ffffff; fill-opacity: 1; stroke-opacity: 1; stroke-width: 2; stroke: #000000" x="60" y="640" width="181" height="69" rx="0" ry="0"/>
      <text font-size="12.8" style="fill: #000000; fill-opacity: 1; stroke: none;text-anchor:middle;font-family:sans-serif;font-style:normal;font-weight:normal" x="150.5" y="678.4">
        <tspan x="150.5" y="678.4">XyPoints</tspan>
      </text>
    </g>
    <text font-size="12.8" style="fill: #000000; fill-opacity: 1; stroke: none;text-anchor:start;font-family:sans-serif;font-style:normal;font-weight:normal" x="250.5" y="554.5">
      <tspan x="250.5" y="554.5"></tspan>
    </text>
    <g>
      <rect style="fill: #ffffff; fill-opacity: 1; stroke-opacity: 1; stroke-width: 2; stroke: #000000" x="260" y="640" width="181" height="69" rx="0" ry="0"/>
      <text font-size="12.8" style="fill: #000000; fill-opacity: 1; stroke: none;text-anchor:middle;font-family:sans-serif;font-style:normal;font-weight:normal" x="350.5" y="678.4">
        <tspan x="350.5" y="678.4">XyData</tspan>
      </text>
    </g>
    <g>
      <rect style="fill: #ffffff; fill-opacity: 1; stroke-opacity: 1; stroke-width: 2; stroke: #000000" x="460" y="640" width="181" height="69" rx="0" ry="0"/>
      <text font-size="12.8" style="fill: #000000; fill-opacity: 1; stroke: none;text-anchor:middle;font-family:sans-serif;font-style:normal;font-weight:normal" x="550.5" y="678.4">
        <tspan x="550.5" y="678.4">RaData</tspan>
      </text>
    </g>
    <g>
      <polyline style="fill: none; stroke-opacity: 1; stroke-width: 2; stroke: #000000" points="205.25,601.236 205.25,614.5 150.5,614.5 150.5,640 "/>
      <polygon style="fill: none; stroke-opacity: 1; stroke-width: 2; stroke: #000000" points="210.25,601.236 205.25,591.236 200.25,601.236 "/>
    </g>
    <g>
      <polyline style="fill: none; stroke-opacity: 1; stroke-width: 2; stroke: #000000" points="295.75,601.236 295.75,614.5 350.5,614.5 350.5,640 "/>
      <polygon style="fill: none; stroke-opacity: 1; stroke-width: 2; stroke: #000000" points="300.75,601.236 295.75,591.236 290.75,601.236 "/>
    </g>
    <g>
      <polyline style="fill: none; stroke-opacity: 1; stroke-width: 2; stroke: #000000" points="550.5,482.232 550.5,580 550.5,580 550.5,640 "/>
      <polygon style="fill: none; stroke-opacity: 1; stroke-width: 2; stroke: #000000" points="555.5,482.232 550.5,472.232 545.5,482.232 "/>
    </g>
    <g>
      <rect style="fill: #ffffff; fill-opacity: 1; stroke-opacity: 1; stroke-width: 2; stroke: #000000" x="1000" y="520" width="181" height="69" rx="0" ry="0"/>
      <text font-size="12.8" style="fill: #000000; fill-opacity: 1; stroke: none;text-anchor:middle;font-family:sans-serif;font-style:normal;font-weight:normal" x="1090.5" y="558.4">
        <tspan x="1090.5" y="558.4">TabularData</tspan>
      </text>
    </g>
    <g>
      <rect style="fill: #ffffff; fill-opacity: 1; stroke-opacity: 1; stroke-width: 2; stroke: #000000" x="900" y="640" width="181" height="69" rx="0" ry="0"/>
      <text font-size="12.8" style="fill: #000000; fill-opacity: 1; stroke: none;text-anchor:middle;font-family:sans-serif;font-style:normal;font-weight:normal" x="990.5" y="678.4">
        <tspan x="990.5" y="678.4">PeakTable</tspan>
      </text>
    </g>
    <g>
      <rect style="fill: #ffffff; fill-opacity: 1; stroke-opacity: 1; stroke-width: 2; stroke: #000000" x="1100" y="640" width="181" height="69" rx="0" ry="0"/>
      <text font-size="12.8" style="fill: #000000; fill-opacity: 1; stroke: none;text-anchor:middle;font-family:sans-serif;font-style:normal;font-weight:normal" x="1190.5" y="678.4">
        <tspan x="1190.5" y="678.4">PeakAssignments</tspan>
      </text>
    </g>
    <g>
      <polyline style="fill: none; stroke-opacity: 1; stroke-width: 2; stroke: #000000" points="1045.25,601.236 1045.25,614.5 990.5,614.5 990.5,640 "/>
      <polygon style="fill: none; stroke-opacity: 1; stroke-width: 2; stroke: #000000" points="1050.25,601.236 1045.25,591.236 1040.25,601.236 "/>
    </g>
    <g>
      <polyline style="fill: none; stroke-opacity: 1; stroke-width: 2; stroke: #000000" points="1135.75,601.236 1135.75,614.5 1190.5,614.5 1190.5,640 "/>
      <polygon style="fill: none; stroke-opacity: 1; stroke-width: 2; stroke: #000000" points="1140.75,601.236 1135.75,591.236 1130.75,601.236 "/>
    </g>
    <g>
      <polyline style="fill: none; stroke-opacity: 1; stroke-width: 2; stroke: #000000" points="795.75,361.236 795.75,460 1090.5,460 1090.5,520 "/>
      <polygon style="fill: none; stroke-opacity: 1; stroke-width: 2; stroke: #000000" points="800.75,361.236 795.75,351.236 790.75,361.236 "/>
    </g>
    <text font-size="12.8" style="fill: #000000; fill-opacity: 1; stroke: none;text-anchor:start;font-family:sans-serif;font-style:normal;font-weight:normal" x="550.5" y="434.5">
      <tspan x="550.5" y="434.5"></tspan>
    </text>
    <text font-size="12.8" style="fill: #000000; fill-opacity: 1; stroke: none;text-anchor:start;font-family:sans-serif;font-style:normal;font-weight:normal" x="550.5" y="434.5">
      <tspan x="550.5" y="434.5"></tspan>
    </text>
    <g>
      <rect style="fill: #ffffff; fill-opacity: 1; stroke-opacity: 1; stroke-width: 2; stroke: #000000" x="1320" y="640" width="181" height="69" rx="0" ry="0"/>
      <text font-size="12.8" style="fill: #000000; fill-opacity: 1; stroke: none;text-anchor:middle;font-family:sans-serif;font-style:normal;font-weight:normal" x="1410.5" y="678.4">
        <tspan x="1410.5" y="678.4">StringLdr</tspan>
      </text>
    </g>
    <text font-size="12.8" style="fill: #000000; fill-opacity: 1; stroke: none;text-anchor:start;font-family:sans-serif;font-style:normal;font-weight:normal" x="1410.5" y="674.5">
      <tspan x="1410.5" y="674.5"></tspan>
    </text>
    <g>
      <polyline style="fill: none; stroke-opacity: 1; stroke-width: 2; stroke: #000000" points="935.75,241.236 935.75,433.996 1410.5,433.996 1410.5,638.991 "/>
      <polygon style="fill: none; stroke-opacity: 1; stroke-width: 2; stroke: #000000" points="940.75,241.236 935.75,231.236 930.75,241.236 "/>
    </g>
    <g>
      <rect style="fill: #ffffff; fill-opacity: 1; stroke-opacity: 1; stroke-width: 2; stroke: #000000" x="800" y="160" width="181" height="69" rx="0" ry="0"/>
      <text font-size="12.8" style="fill: #000000; fill-opacity: 1; stroke: none;text-anchor:middle;font-family:sans-serif;font-style:normal;font-weight:normal" x="890.5" y="198.4">
        <tspan x="890.5" y="198.4">Ldr</tspan>
      </text>
    </g>
    <text font-size="12.8" style="fill: #000000; fill-opacity: 1; stroke: none;text-anchor:start;font-family:sans-serif;font-style:normal;font-weight:normal" x="890.5" y="194.5">
      <tspan x="890.5" y="194.5"></tspan>
    </text>
    <g>
      <polyline style="fill: none; stroke-opacity: 1; stroke-width: 2; stroke: #000000" points="845.25,241.236 845.25,254.5 750.5,254.5 750.5,280 "/>
      <polygon style="fill: none; stroke-opacity: 1; stroke-width: 2; stroke: #000000" points="850.25,241.236 845.25,231.236 840.25,241.236 "/>
    </g>
    <g>
      <rect style="fill: #ffffff; fill-opacity: 1; stroke-opacity: 1; stroke-width: 2; stroke: #000000" x="660" y="640" width="181" height="69" rx="0" ry="0"/>
      <text font-size="12.8" style="fill: #000000; fill-opacity: 1; stroke: none;text-anchor:middle;font-family:sans-serif;font-style:normal;font-weight:normal" x="750.5" y="678.4">
        <tspan x="750.5" y="678.4">DataTable</tspan>
      </text>
    </g>
    <g>
      <polyline style="fill: none; stroke-opacity: 1; stroke-width: 2; stroke: #000000" points="595.75,481.236 595.75,554.5 750.5,554.5 750.5,640 "/>
      <polygon style="fill: none; stroke-opacity: 1; stroke-width: 2; stroke: #000000" points="600.75,481.236 595.75,471.236 590.75,481.236 "/>
    </g>
    <text font-size="12.8" style="fill: #000000; fill-opacity: 1; stroke: none;text-anchor:start;font-family:sans-serif;font-style:normal;font-weight:normal" x="750.5" y="674.5">
      <tspan x="750.5" y="674.5"></tspan>
    </text>
    <g>
      <rect style="fill: #ffffb3; fill-opacity: 1; stroke-opacity: 1; stroke-width: 2; stroke: #000000" x="260" y="40" width="181" height="69" rx="0" ry="0"/>
      <text font-size="12.8" style="fill: #000000; fill-opacity: 1; stroke: none;text-anchor:middle;font-family:sans-serif;font-style:normal;font-weight:normal" x="350.5" y="78.4">
        <tspan x="350.5" y="78.4">LdrContainer</tspan>
      </text>
    </g>
    <g>
      <rect style="fill: #ffffb3; fill-opacity: 1; stroke-opacity: 1; stroke-width: 2; stroke: #000000" x="60" y="160" width="181" height="69" rx="0" ry="0"/>
      <text font-size="12.8" style="fill: #000000; fill-opacity: 1; stroke: none;text-anchor:middle;font-family:sans-serif;font-style:normal;font-weight:normal" x="150.5" y="190.4">
        <tspan x="150.5" y="190.4">Block</tspan>
        <tspan x="150.5" y="206.4">TITLE</tspan>
      </text>
    </g>
    <g>
      <rect style="fill: #ffffb3; fill-opacity: 1; stroke-opacity: 1; stroke-width: 2; stroke: #000000" x="260" y="160" width="181" height="69" rx="0" ry="0"/>
      <text font-size="12.8" style="fill: #000000; fill-opacity: 1; stroke: none;text-anchor:middle;font-family:sans-serif;font-style:normal;font-weight:normal" x="350.5" y="190.4">
        <tspan x="350.5" y="190.4">NTuples</tspan>
        <tspan x="350.5" y="206.4">NTUPLES</tspan>
      </text>
    </g>
    <g>
      <polyline style="fill: none; stroke-opacity: 1; stroke-width: 2; stroke: #000000" points="305.25,121.236 305.25,134.5 150.5,134.5 150.5,160 "/>
      <polygon style="fill: none; stroke-opacity: 1; stroke-width: 2; stroke: #000000" points="310.25,121.236 305.25,111.236 300.25,121.236 "/>
    </g>
    <g>
      <polyline style="fill: none; stroke-opacity: 1; stroke-width: 2; stroke: #000000" points="350.5,121.236 350.5,134.5 350.5,134.5 350.5,160 "/>
      <polygon style="fill: none; stroke-opacity: 1; stroke-width: 2; stroke: #000000" points="355.5,121.236 350.5,111.236 345.5,121.236 "/>
    </g>
    <g>
      <rect style="fill: #ffffb3; fill-opacity: 1; stroke-opacity: 1; stroke-width: 2; stroke: #000000" x="460" y="160" width="181" height="69" rx="0" ry="0"/>
      <text font-size="12.8" style="fill: #000000; fill-opacity: 1; stroke: none;text-anchor:middle;font-family:sans-serif;font-style:normal;font-weight:normal" x="550.5" y="190.4">
        <tspan x="550.5" y="190.4">Page</tspan>
        <tspan x="550.5" y="206.4">PAGE</tspan>
      </text>
    </g>
    <g>
      <polyline style="fill: none; stroke-opacity: 1; stroke-width: 2; stroke: #000000" points="395.75,121.236 395.75,134.5 550.5,134.5 550.5,160 "/>
      <polygon style="fill: none; stroke-opacity: 1; stroke-width: 2; stroke: #000000" points="400.75,121.236 395.75,111.236 390.75,121.236 "/>
    </g>
    <text font-size="12.7998" style="fill: #000000; fill-opacity: 1; stroke: none;text-anchor:start;font-family:sans-serif;font-style:normal;font-weight:normal" x="150.5" y="194.5">
      <tspan x="150.5" y="194.5"></tspan>
    </text>
  </g>
</svg>
