<?xml version="1.0" encoding="UTF-8" standalone="no"?>
<svg
   xmlns:dc="http://purl.org/dc/elements/1.1/"
   xmlns:cc="http://creativecommons.org/ns#"
   xmlns:rdf="http://www.w3.org/1999/02/22-rdf-syntax-ns#"
   xmlns:svg="http://www.w3.org/2000/svg"
   xmlns="http://www.w3.org/2000/svg"
   id="svg4555"
   version="1.1"
   viewBox="0 0 256 256"
   height="256mm"
   width="256mm">
  <defs
     id="defs4549">
    <marker
       style="overflow:visible"
       id="marker5806"
       refX="0.0"
       refY="0.0"
       orient="auto">
      <path
         transform="scale(0.8) translate(12.5,0)"
         style="fill-rule:evenodd;stroke:#000000;stroke-width:1pt;stroke-opacity:1;fill:#000000;fill-opacity:1"
         d="M 0.0,0.0 L 5.0,-5.0 L -12.5,0.0 L 5.0,5.0 L 0.0,0.0 z "
         id="path5804" />
    </marker>
    <marker
       style="overflow:visible"
       id="marker5784"
       refX="0.0"
       refY="0.0"
       orient="auto">
      <path
         transform="scale(0.8) translate(12.5,0)"
         style="fill-rule:evenodd;stroke:#000000;stroke-width:1pt;stroke-opacity:1;fill:#000000;fill-opacity:1"
         d="M 0.0,0.0 L 5.0,-5.0 L -12.5,0.0 L 5.0,5.0 L 0.0,0.0 z "
         id="path5782" />
    </marker>
    <marker
       style="overflow:visible"
       id="Arrow1Lstart"
       refX="0.0"
       refY="0.0"
       orient="auto">
      <path
         transform="scale(0.8) translate(12.5,0)"
         style="fill-rule:evenodd;stroke:#000000;stroke-width:1pt;stroke-opacity:1;fill:#000000;fill-opacity:1"
         d="M 0.0,0.0 L 5.0,-5.0 L -12.5,0.0 L 5.0,5.0 L 0.0,0.0 z "
         id="path5506" />
    </marker>
  </defs>
  <metadata
     id="metadata4552">
    <rdf:RDF>
      <cc:Work
         rdf:about="">
        <dc:format>image/svg+xml</dc:format>
        <dc:type
           rdf:resource="http://purl.org/dc/dcmitype/StillImage" />
        <dc:title></dc:title>
      </cc:Work>
    </rdf:RDF>
  </metadata>
  <g
     style="opacity:0.98"
     transform="translate(0,-41)"
     id="layer1">
    <g
       id="text1246"
       style="font-style:normal;font-variant:normal;font-weight:bold;font-stretch:normal;font-size:22.57777786px;line-height:1.25;font-family:FreeMono;-inkscape-font-specification:'FreeMono, Bold';font-variant-ligatures:normal;font-variant-caps:normal;font-variant-numeric:normal;font-feature-settings:normal;text-align:start;letter-spacing:0px;word-spacing:0px;writing-mode:lr-tb;text-anchor:start;opacity:1;fill:#000000;fill-opacity:1;stroke:none;stroke-width:0.26458332"
       aria-label="      1   1      
      1  01      
      1 1 1      
      10  1      
     1  1  1     
    101010101    
   10101010101   
  1111111111111   ">
      <path
         id="path887"
         style="stroke-width:0.26458332"
         d="m 95.952165,76.362948 q 0,-0.654756 0.383823,-0.880534 0.383822,-0.248355 1.106311,-0.248355 h 2.280355 V 65.57077 l -1.851377,1.309511 q -0.338667,0.293511 -0.925689,0.293511 -0.383823,0 -0.677334,-0.248355 -0.270933,-0.248356 -0.270933,-0.654756 0,-0.361244 0.158044,-0.587022 0.158045,-0.248356 0.541867,-0.519289 l 3.048,-2.077156 h 2.235198 v 12.146845 h 2.28036 q 1.49013,0 1.49013,1.128889 0,1.128889 -1.49013,1.128889 h -6.818491 q -1.490134,0 -1.490134,-1.128889 z" />
      <path
         id="path889"
         style="stroke-width:0.26458332"
         d="m 150.10356,76.362948 q 0,-0.654756 0.38383,-0.880534 0.38382,-0.248355 1.10631,-0.248355 h 2.28035 V 65.57077 l -1.85138,1.309511 q -0.33866,0.293511 -0.92568,0.293511 -0.38383,0 -0.67734,-0.248355 -0.27093,-0.248356 -0.27093,-0.654756 0,-0.361244 0.15804,-0.587022 0.15805,-0.248356 0.54187,-0.519289 l 3.048,-2.077156 h 2.2352 v 12.146845 h 2.28036 q 1.49013,0 1.49013,1.128889 0,1.128889 -1.49013,1.128889 h -6.81849 q -1.49014,0 -1.49014,-1.128889 z" />
      <path
         id="path891"
         style="stroke-width:0.26458332"
         d="m 95.952165,104.58517 q 0,-0.65476 0.383823,-0.88053 0.383822,-0.24836 1.106311,-0.24836 h 2.280355 v -9.663289 l -1.851377,1.309511 q -0.338667,0.293511 -0.925689,0.293511 -0.383823,0 -0.677334,-0.248355 -0.270933,-0.248356 -0.270933,-0.654756 0,-0.361244 0.158044,-0.587022 0.158045,-0.248355 0.541867,-0.519289 l 3.048,-2.077155 h 2.235198 v 12.146844 h 2.28036 q 1.49013,0 1.49013,1.12889 0,1.12889 -1.49013,1.12889 h -6.818491 q -1.490134,0 -1.490134,-1.12889 z" />
      <path
         id="path893"
         style="fill:#008000;stroke-width:0.26458332"
         d="m 141.46509,91.309436 q 2.39325,0 3.63502,1.8288 1.26436,1.8288 1.26436,4.4704 v 2.144889 q 0,1.693335 -0.51929,3.093155 -0.49671,1.37724 -1.64818,2.30293 -1.12889,0.90311 -2.73191,0.90311 -2.39324,0 -3.6576,-1.8288 -1.24178,-1.8288 -1.24178,-4.470395 v -2.144889 q 0,-1.693334 0.49671,-3.070578 0.51929,-1.399822 1.64818,-2.302933 1.15147,-0.925689 2.75449,-0.925689 z m -2.6416,6.141155 v 2.460978 q 0,1.761071 0.72249,2.822221 0.72249,1.06116 1.91911,1.06116 1.19662,0 1.91911,-1.06116 0.72249,-1.06115 0.72249,-2.822221 v -2.460978 q 0,-1.761066 -0.72249,-2.822222 -0.72249,-1.061156 -1.91911,-1.061156 -1.19662,0 -1.91911,1.061156 -0.72249,1.061156 -0.72249,2.822222 z" />
      <path
         id="path895"
         style="stroke-width:0.26458332"
         d="m 150.10355,104.58517 q 0,-0.65476 0.38383,-0.88053 0.38382,-0.24836 1.10631,-0.24836 h 2.28035 v -9.663289 l -1.85137,1.309511 q -0.33867,0.293511 -0.92569,0.293511 -0.38383,0 -0.67734,-0.248355 -0.27093,-0.248356 -0.27093,-0.654756 0,-0.361244 0.15804,-0.587022 0.15805,-0.248355 0.54187,-0.519289 l 3.048,-2.077155 h 2.2352 v 12.146844 h 2.28036 q 1.49013,0 1.49013,1.12889 0,1.12889 -1.49013,1.12889 h -6.81849 q -1.49014,0 -1.49014,-1.12889 z" />
      <path
         id="path897"
         style="stroke-width:0.26458332"
         d="m 95.952165,132.80739 q 0,-0.65476 0.383823,-0.88053 0.383822,-0.24836 1.106311,-0.24836 h 2.280355 v -9.66329 l -1.851377,1.30951 q -0.338667,0.29351 -0.925689,0.29351 -0.383823,0 -0.677334,-0.24835 -0.270933,-0.24836 -0.270933,-0.65476 0,-0.36124 0.158044,-0.58702 0.158045,-0.24835 0.541867,-0.51929 l 3.048,-2.07715 h 2.235198 v 12.14684 h 2.28036 q 1.49013,0 1.49013,1.12889 0,1.12889 -1.49013,1.12889 h -6.818491 q -1.490134,0 -1.490134,-1.12889 z" />
      <path
         id="path899"
         style="fill:#008000;stroke-width:0.26458332"
         d="m 123.02786,132.80739 q 0,-0.65476 0.38382,-0.88053 0.38382,-0.24836 1.10631,-0.24836 h 2.28035 v -9.66329 l -1.85137,1.30951 q -0.33867,0.29351 -0.92569,0.29351 -0.38382,0 -0.67734,-0.24835 -0.27093,-0.24836 -0.27093,-0.65476 0,-0.36124 0.15805,-0.58702 0.15804,-0.24835 0.54186,-0.51929 l 3.048,-2.07715 h 2.2352 v 12.14684 h 2.28036 q 1.49013,0 1.49013,1.12889 0,1.12889 -1.49013,1.12889 h -6.81849 q -1.49013,0 -1.49013,-1.12889 z" />
      <path
         id="path901"
         style="stroke-width:0.26458332"
         d="m 150.10356,132.80739 q 0,-0.65476 0.38382,-0.88053 0.38382,-0.24836 1.10631,-0.24836 h 2.28036 v -9.66329 l -1.85138,1.30951 q -0.33867,0.29351 -0.92569,0.29351 -0.38382,0 -0.67733,-0.24835 -0.27093,-0.24836 -0.27093,-0.65476 0,-0.36124 0.15804,-0.58702 0.15804,-0.24835 0.54187,-0.51929 l 3.048,-2.07715 h 2.2352 v 12.14684 h 2.28035 q 1.49014,0 1.49014,1.12889 0,1.12889 -1.49014,1.12889 h -6.81849 q -1.49013,0 -1.49013,-1.12889 z" />
      <path
         id="path903"
         style="stroke-width:0.26458332"
         d="m 95.952165,161.02962 q 0,-0.65476 0.383823,-0.88053 0.383822,-0.24836 1.106311,-0.24836 h 2.280355 v -9.66329 l -1.851377,1.30951 q -0.338667,0.29351 -0.925689,0.29351 -0.383823,0 -0.677334,-0.24835 -0.270933,-0.24836 -0.270933,-0.65476 0,-0.36124 0.158044,-0.58702 0.158045,-0.24836 0.541867,-0.51929 l 3.048,-2.07715 h 2.235198 v 12.14684 h 2.28036 q 1.49013,0 1.49013,1.12889 0,1.12889 -1.49013,1.12889 h -6.818491 q -1.490134,0 -1.490134,-1.12889 z" />
      <path
         id="path905"
         style="fill:#008000;stroke-width:0.26458332"
         d="m 114.38941,147.75389 q 2.39324,0 3.63502,1.8288 1.26435,1.8288 1.26435,4.4704 v 2.14488 q 0,1.69334 -0.51928,3.09316 -0.49672,1.37724 -1.64818,2.30293 -1.12889,0.90311 -2.73191,0.90311 -2.39325,0 -3.6576,-1.8288 -1.24178,-1.8288 -1.24178,-4.4704 v -2.14488 q 0,-1.69334 0.49671,-3.07058 0.51929,-1.39982 1.64818,-2.30294 1.15146,-0.92568 2.75449,-0.92568 z m -2.6416,6.14115 v 2.46098 q 0,1.76107 0.72249,2.82222 0.72248,1.06116 1.91911,1.06116 1.19662,0 1.91911,-1.06116 0.72249,-1.06115 0.72249,-2.82222 v -2.46098 q 0,-1.76107 -0.72249,-2.82222 -0.72249,-1.06116 -1.91911,-1.06116 -1.19663,0 -1.91911,1.06116 -0.72249,1.06115 -0.72249,2.82222 z" />
      <path
         id="path907"
         style="stroke-width:0.26458332"
         d="m 150.10355,161.02962 q 0,-0.65476 0.38382,-0.88053 0.38383,-0.24836 1.10631,-0.24836 h 2.28036 v -9.66329 l -1.85138,1.30951 q -0.33866,0.29351 -0.92569,0.29351 -0.38382,0 -0.67733,-0.24835 -0.27093,-0.24836 -0.27093,-0.65476 0,-0.36124 0.15804,-0.58702 0.15805,-0.24836 0.54187,-0.51929 l 3.048,-2.07715 h 2.2352 v 12.14684 h 2.28035 q 1.49014,0 1.49014,1.12889 0,1.12889 -1.49014,1.12889 h -6.81849 q -1.49013,0 -1.49013,-1.12889 z" />
      <path
         id="path909"
         style="stroke-width:0.26458332"
         d="m 82.414324,189.25183 q 0,-0.65475 0.383822,-0.88053 0.383822,-0.24836 1.106311,-0.24836 h 2.280356 v -9.66328 l -1.851378,1.30951 q -0.338667,0.29351 -0.925689,0.29351 -0.383822,0 -0.677333,-0.24836 -0.270934,-0.24835 -0.270934,-0.65475 0,-0.36125 0.158045,-0.58703 0.158044,-0.24835 0.541866,-0.51928 l 3.048,-2.07716 h 2.2352 v 12.14684 h 2.280356 q 1.490133,0 1.490133,1.12889 0,1.12889 -1.490133,1.12889 h -6.818489 q -1.490133,0 -1.490133,-1.12889 z" />
      <path
         id="path911"
         style="fill:#008000;stroke-width:0.26458332"
         d="m 123.02786,189.25183 q 0,-0.65475 0.38382,-0.88053 0.38382,-0.24836 1.10631,-0.24836 h 2.28035 v -9.66328 l -1.85137,1.30951 q -0.33867,0.29351 -0.92569,0.29351 -0.38382,0 -0.67734,-0.24836 -0.27093,-0.24835 -0.27093,-0.65475 0,-0.36125 0.15805,-0.58703 0.15804,-0.24835 0.54186,-0.51928 l 3.048,-2.07716 h 2.2352 v 12.14684 h 2.28036 q 1.49013,0 1.49013,1.12889 0,1.12889 -1.49013,1.12889 h -6.81849 q -1.49013,0 -1.49013,-1.12889 z" />
      <path
         id="path913"
         style="stroke-width:0.26458332"
         d="m 163.64141,189.25183 q 0,-0.65475 0.38382,-0.88053 0.38382,-0.24836 1.10631,-0.24836 h 2.28036 v -9.66328 l -1.85138,1.30951 q -0.33867,0.29351 -0.92569,0.29351 -0.38382,0 -0.67733,-0.24836 -0.27094,-0.24835 -0.27094,-0.65475 0,-0.36125 0.15805,-0.58703 0.15804,-0.24835 0.54186,-0.51928 l 3.048,-2.07716 h 2.2352 v 12.14684 h 2.28036 q 1.49013,0 1.49013,1.12889 0,1.12889 -1.49013,1.12889 h -6.81849 q -1.49013,0 -1.49013,-1.12889 z" />
      <path
         id="path915"
         style="stroke-width:0.26458332"
         d="m 68.876474,217.47406 q 0,-0.65475 0.383822,-0.88053 0.383823,-0.24836 1.106312,-0.24836 h 2.280355 v -9.66329 l -1.851378,1.30952 q -0.338666,0.29351 -0.925689,0.29351 -0.383822,0 -0.677333,-0.24836 -0.270933,-0.24835 -0.270933,-0.65475 0,-0.36125 0.158044,-0.58703 0.158045,-0.24835 0.541867,-0.51929 l 3.048,-2.07715 h 2.2352 v 12.14684 h 2.280355 q 1.490134,0 1.490134,1.12889 0,1.12889 -1.490134,1.12889 h -6.818488 q -1.490134,0 -1.490134,-1.12889 z" />
      <path
         id="path917"
         style="font-style:normal;font-variant:normal;font-weight:bold;font-stretch:normal;font-size:22.57777786px;font-family:FreeMono;-inkscape-font-specification:'FreeMono, Bold';font-variant-ligatures:normal;font-variant-caps:normal;font-variant-numeric:normal;font-feature-settings:normal;text-align:start;writing-mode:lr-tb;text-anchor:start;fill:#008000;stroke-width:0.26458332"
         d="m 87.313708,204.19833 q 2.393245,0 3.635022,1.8288 1.264356,1.8288 1.264356,4.4704 v 2.14489 q 0,1.69333 -0.519289,3.09315 -0.496711,1.37725 -1.648178,2.30294 -1.128889,0.90311 -2.731911,0.90311 -2.393244,0 -3.6576,-1.8288 -1.241778,-1.8288 -1.241778,-4.4704 v -2.14489 q 0,-1.69333 0.496711,-3.07058 0.519289,-1.39982 1.648178,-2.30293 1.151467,-0.92569 2.754489,-0.92569 z m -2.6416,6.14115 v 2.46098 q 0,1.76107 0.722489,2.82222 0.722489,1.06116 1.919111,1.06116 1.196622,0 1.919111,-1.06116 0.722489,-1.06115 0.722489,-2.82222 v -2.46098 q 0,-1.76106 -0.722489,-2.82222 -0.722489,-1.06115 -1.919111,-1.06115 -1.196622,0 -1.919111,1.06115 -0.722489,1.06116 -0.722489,2.82222 z" />
      <path
         id="path919"
         style="font-style:normal;font-variant:normal;font-weight:bold;font-stretch:normal;font-size:22.57777786px;font-family:FreeMono;-inkscape-font-specification:'FreeMono, Bold';font-variant-ligatures:normal;font-variant-caps:normal;font-variant-numeric:normal;font-feature-settings:normal;text-align:start;writing-mode:lr-tb;text-anchor:start;fill:#008000;stroke-width:0.26458332"
         d="m 95.952178,217.47406 q 0,-0.65475 0.383822,-0.88053 0.383822,-0.24836 1.106311,-0.24836 h 2.280356 v -9.66329 l -1.851378,1.30952 q -0.338667,0.29351 -0.925689,0.29351 -0.383822,0 -0.677333,-0.24836 -0.270934,-0.24835 -0.270934,-0.65475 0,-0.36125 0.158045,-0.58703 0.158044,-0.24835 0.541867,-0.51929 l 3.048,-2.07715 h 2.235195 v 12.14684 h 2.28036 q 1.49013,0 1.49013,1.12889 0,1.12889 -1.49013,1.12889 h -6.818489 q -1.490133,0 -1.490133,-1.12889 z" />
      <path
         id="path921"
         style="font-style:normal;font-variant:normal;font-weight:bold;font-stretch:normal;font-size:22.57777786px;font-family:FreeMono;-inkscape-font-specification:'FreeMono, Bold';font-variant-ligatures:normal;font-variant-caps:normal;font-variant-numeric:normal;font-feature-settings:normal;text-align:start;writing-mode:lr-tb;text-anchor:start;fill:#008000;stroke-width:0.26458332"
         d="m 114.3894,204.19833 q 2.39325,0 3.63503,1.8288 1.26435,1.8288 1.26435,4.4704 v 2.14489 q 0,1.69333 -0.51929,3.09315 -0.49671,1.37725 -1.64818,2.30294 -1.12888,0.90311 -2.73191,0.90311 -2.39324,0 -3.6576,-1.8288 -1.24177,-1.8288 -1.24177,-4.4704 v -2.14489 q 0,-1.69333 0.49671,-3.07058 0.51929,-1.39982 1.64817,-2.30293 1.15147,-0.92569 2.75449,-0.92569 z m -2.6416,6.14115 v 2.46098 q 0,1.76107 0.72249,2.82222 0.72249,1.06116 1.91911,1.06116 1.19663,0 1.91911,-1.06116 0.72249,-1.06115 0.72249,-2.82222 v -2.46098 q 0,-1.76106 -0.72249,-2.82222 -0.72248,-1.06115 -1.91911,-1.06115 -1.19662,0 -1.91911,1.06115 -0.72249,1.06116 -0.72249,2.82222 z" />
      <path
         id="path923"
         style="font-style:normal;font-variant:normal;font-weight:bold;font-stretch:normal;font-size:22.57777786px;font-family:FreeMono;-inkscape-font-specification:'FreeMono, Bold';font-variant-ligatures:normal;font-variant-caps:normal;font-variant-numeric:normal;font-feature-settings:normal;text-align:start;writing-mode:lr-tb;text-anchor:start;fill:#008000;stroke-width:0.26458332"
         d="m 123.02787,217.47406 q 0,-0.65475 0.38382,-0.88053 0.38383,-0.24836 1.10631,-0.24836 h 2.28036 v -9.66329 l -1.85138,1.30952 q -0.33866,0.29351 -0.92569,0.29351 -0.38382,0 -0.67733,-0.24836 -0.27093,-0.24835 -0.27093,-0.65475 0,-0.36125 0.15804,-0.58703 0.15805,-0.24835 0.54187,-0.51929 l 3.048,-2.07715 h 2.2352 v 12.14684 h 2.28035 q 1.49014,0 1.49014,1.12889 0,1.12889 -1.49014,1.12889 H 124.518 q -1.49013,0 -1.49013,-1.12889 z" />
      <path
         id="path925"
         style="font-style:normal;font-variant:normal;font-weight:bold;font-stretch:normal;font-size:22.57777786px;font-family:FreeMono;-inkscape-font-specification:'FreeMono, Bold';font-variant-ligatures:normal;font-variant-caps:normal;font-variant-numeric:normal;font-feature-settings:normal;text-align:start;writing-mode:lr-tb;text-anchor:start;fill:#008000;stroke-width:0.26458332"
         d="m 141.4651,204.19833 q 2.39324,0 3.63502,1.8288 1.26436,1.8288 1.26436,4.4704 v 2.14489 q 0,1.69333 -0.51929,3.09315 -0.49671,1.37725 -1.64818,2.30294 -1.12889,0.90311 -2.73191,0.90311 -2.39325,0 -3.6576,-1.8288 -1.24178,-1.8288 -1.24178,-4.4704 v -2.14489 q 0,-1.69333 0.49671,-3.07058 0.51929,-1.39982 1.64818,-2.30293 1.15147,-0.92569 2.75449,-0.92569 z m -2.6416,6.14115 v 2.46098 q 0,1.76107 0.72249,2.82222 0.72249,1.06116 1.91911,1.06116 1.19662,0 1.91911,-1.06116 0.72249,-1.06115 0.72249,-2.82222 v -2.46098 q 0,-1.76106 -0.72249,-2.82222 -0.72249,-1.06115 -1.91911,-1.06115 -1.19662,0 -1.91911,1.06115 -0.72249,1.06116 -0.72249,2.82222 z" />
      <path
         id="path927"
         style="font-style:normal;font-variant:normal;font-weight:bold;font-stretch:normal;font-size:22.57777786px;font-family:FreeMono;-inkscape-font-specification:'FreeMono, Bold';font-variant-ligatures:normal;font-variant-caps:normal;font-variant-numeric:normal;font-feature-settings:normal;text-align:start;writing-mode:lr-tb;text-anchor:start;fill:#008000;stroke-width:0.26458332"
         d="m 150.10357,217.47406 q 0,-0.65475 0.38382,-0.88053 0.38382,-0.24836 1.10631,-0.24836 h 2.28036 v -9.66329 l -1.85138,1.30952 q -0.33867,0.29351 -0.92569,0.29351 -0.38382,0 -0.67733,-0.24836 -0.27093,-0.24835 -0.27093,-0.65475 0,-0.36125 0.15804,-0.58703 0.15804,-0.24835 0.54187,-0.51929 l 3.048,-2.07715 h 2.2352 v 12.14684 h 2.28035 q 1.49014,0 1.49014,1.12889 0,1.12889 -1.49014,1.12889 h -6.81849 q -1.49013,0 -1.49013,-1.12889 z" />
      <path
         id="path929"
         style="font-style:normal;font-variant:normal;font-weight:bold;font-stretch:normal;font-size:22.57777786px;font-family:FreeMono;-inkscape-font-specification:'FreeMono, Bold';font-variant-ligatures:normal;font-variant-caps:normal;font-variant-numeric:normal;font-feature-settings:normal;text-align:start;writing-mode:lr-tb;text-anchor:start;fill:#008000;stroke-width:0.26458332"
         d="m 168.54079,204.19833 q 2.39324,0 3.63502,1.8288 1.26436,1.8288 1.26436,4.4704 v 2.14489 q 0,1.69333 -0.51929,3.09315 -0.49671,1.37725 -1.64818,2.30294 -1.12889,0.90311 -2.73191,0.90311 -2.39325,0 -3.6576,-1.8288 -1.24178,-1.8288 -1.24178,-4.4704 v -2.14489 q 0,-1.69333 0.49671,-3.07058 0.51929,-1.39982 1.64818,-2.30293 1.15147,-0.92569 2.75449,-0.92569 z m -2.6416,6.14115 v 2.46098 q 0,1.76107 0.72249,2.82222 0.72249,1.06116 1.91911,1.06116 1.19662,0 1.91911,-1.06116 0.72249,-1.06115 0.72249,-2.82222 v -2.46098 q 0,-1.76106 -0.72249,-2.82222 -0.72249,-1.06115 -1.91911,-1.06115 -1.19662,0 -1.91911,1.06115 -0.72249,1.06116 -0.72249,2.82222 z" />
      <path
         id="path931"
         style="stroke-width:0.26458332"
         d="m 177.17925,217.47406 q 0,-0.65475 0.38383,-0.88053 0.38382,-0.24836 1.10631,-0.24836 h 2.28035 v -9.66329 l -1.85138,1.30952 q -0.33866,0.29351 -0.92568,0.29351 -0.38383,0 -0.67734,-0.24836 -0.27093,-0.24835 -0.27093,-0.65475 0,-0.36125 0.15804,-0.58703 0.15805,-0.24835 0.54187,-0.51929 l 3.048,-2.07715 h 2.2352 v 12.14684 h 2.28036 q 1.49013,0 1.49013,1.12889 0,1.12889 -1.49013,1.12889 h -6.81849 q -1.49014,0 -1.49014,-1.12889 z" />
      <path
         id="path933"
         style="stroke-width:0.26458332"
         d="m 55.338625,245.69629 q 0,-0.65475 0.383822,-0.88053 0.383822,-0.24836 1.106311,-0.24836 h 2.280356 v -9.66329 l -1.851378,1.30951 q -0.338667,0.29352 -0.925689,0.29352 -0.383822,0 -0.677333,-0.24836 -0.270934,-0.24836 -0.270934,-0.65476 0,-0.36124 0.158045,-0.58702 0.158044,-0.24835 0.541866,-0.51929 l 3.048,-2.07715 h 2.2352 v 12.14684 h 2.280356 q 1.490133,0 1.490133,1.12889 0,1.12889 -1.490133,1.12889 h -6.818489 q -1.490133,0 -1.490133,-1.12889 z" />
      <path
         id="path935"
         style="font-style:normal;font-variant:normal;font-weight:bold;font-stretch:normal;font-size:22.57777786px;font-family:FreeMono;-inkscape-font-specification:'FreeMono, Bold';font-variant-ligatures:normal;font-variant-caps:normal;font-variant-numeric:normal;font-feature-settings:normal;text-align:start;writing-mode:lr-tb;text-anchor:start;fill:#008000;stroke-width:0.26458332"
         d="m 73.775836,232.42056 q 2.393244,0 3.635022,1.8288 1.264356,1.8288 1.264356,4.4704 v 2.14489 q 0,1.69333 -0.519289,3.09315 -0.496711,1.37725 -1.648178,2.30294 -1.128889,0.90311 -2.731911,0.90311 -2.393245,0 -3.6576,-1.8288 -1.241778,-1.8288 -1.241778,-4.4704 v -2.14489 q 0,-1.69334 0.496711,-3.07058 0.519289,-1.39982 1.648178,-2.30293 1.151467,-0.92569 2.754489,-0.92569 z m -2.6416,6.14115 v 2.46098 q 0,1.76107 0.722489,2.82222 0.722489,1.06116 1.919111,1.06116 1.196622,0 1.919111,-1.06116 0.722489,-1.06115 0.722489,-2.82222 v -2.46098 q 0,-1.76106 -0.722489,-2.82222 -0.722489,-1.06115 -1.919111,-1.06115 -1.196622,0 -1.919111,1.06115 -0.722489,1.06116 -0.722489,2.82222 z" />
      <path
         id="path937"
         style="font-style:normal;font-variant:normal;font-weight:bold;font-stretch:normal;font-size:22.57777786px;font-family:FreeMono;-inkscape-font-specification:'FreeMono, Bold';font-variant-ligatures:normal;font-variant-caps:normal;font-variant-numeric:normal;font-feature-settings:normal;text-align:start;writing-mode:lr-tb;text-anchor:start;fill:#008000;stroke-width:0.26458332"
         d="m 82.414306,245.69629 q 0,-0.65475 0.383822,-0.88053 0.383822,-0.24836 1.106311,-0.24836 h 2.280355 v -9.66329 l -1.851377,1.30951 q -0.338667,0.29352 -0.925689,0.29352 -0.383822,0 -0.677334,-0.24836 -0.270933,-0.24836 -0.270933,-0.65476 0,-0.36124 0.158045,-0.58702 0.158044,-0.24835 0.541866,-0.51929 l 3.048,-2.07715 h 2.2352 v 12.14684 h 2.280356 q 1.490133,0 1.490133,1.12889 0,1.12889 -1.490133,1.12889 h -6.818489 q -1.490133,0 -1.490133,-1.12889 z" />
      <path
         id="path939"
         style="font-style:normal;font-variant:normal;font-weight:bold;font-stretch:normal;font-size:22.57777786px;font-family:FreeMono;-inkscape-font-specification:'FreeMono, Bold';font-variant-ligatures:normal;font-variant-caps:normal;font-variant-numeric:normal;font-feature-settings:normal;text-align:start;writing-mode:lr-tb;text-anchor:start;fill:#008000;stroke-width:0.26458332"
         d="m 100.85153,232.42056 q 2.39325,0 3.63502,1.8288 1.26436,1.8288 1.26436,4.4704 v 2.14489 q 0,1.69333 -0.51929,3.09315 -0.49671,1.37725 -1.64818,2.30294 -1.12889,0.90311 -2.73191,0.90311 -2.393244,0 -3.657599,-1.8288 -1.241778,-1.8288 -1.241778,-4.4704 v -2.14489 q 0,-1.69334 0.496711,-3.07058 0.519289,-1.39982 1.648178,-2.30293 1.151467,-0.92569 2.754488,-0.92569 z m -2.641599,6.14115 v 2.46098 q 0,1.76107 0.722489,2.82222 0.722489,1.06116 1.91911,1.06116 1.19662,0 1.91911,-1.06116 0.72249,-1.06115 0.72249,-2.82222 v -2.46098 q 0,-1.76106 -0.72249,-2.82222 -0.72249,-1.06115 -1.91911,-1.06115 -1.196621,0 -1.91911,1.06115 -0.722489,1.06116 -0.722489,2.82222 z" />
      <path
         id="path941"
         style="font-style:normal;font-variant:normal;font-weight:bold;font-stretch:normal;font-size:22.57777786px;font-family:FreeMono;-inkscape-font-specification:'FreeMono, Bold';font-variant-ligatures:normal;font-variant-caps:normal;font-variant-numeric:normal;font-feature-settings:normal;text-align:start;writing-mode:lr-tb;text-anchor:start;fill:#008000;stroke-width:0.26458332"
         d="m 109.49,245.69629 q 0,-0.65475 0.38382,-0.88053 0.38382,-0.24836 1.10631,-0.24836 h 2.28036 v -9.66329 l -1.85138,1.30951 q -0.33867,0.29352 -0.92569,0.29352 -0.38382,0 -0.67733,-0.24836 -0.27094,-0.24836 -0.27094,-0.65476 0,-0.36124 0.15805,-0.58702 0.15804,-0.24835 0.54187,-0.51929 l 3.048,-2.07715 h 2.2352 v 12.14684 h 2.28035 q 1.49013,0 1.49013,1.12889 0,1.12889 -1.49013,1.12889 h -6.81849 q -1.49013,0 -1.49013,-1.12889 z" />
      <path
         id="path943"
         style="font-style:normal;font-variant:normal;font-weight:bold;font-stretch:normal;font-size:22.57777786px;font-family:FreeMono;-inkscape-font-specification:'FreeMono, Bold';font-variant-ligatures:normal;font-variant-caps:normal;font-variant-numeric:normal;font-feature-settings:normal;text-align:start;writing-mode:lr-tb;text-anchor:start;fill:#008000;stroke-width:0.26458332"
         d="m 127.92723,232.42056 q 2.39324,0 3.63502,1.8288 1.26435,1.8288 1.26435,4.4704 v 2.14489 q 0,1.69333 -0.51929,3.09315 -0.49671,1.37725 -1.64817,2.30294 -1.12889,0.90311 -2.73191,0.90311 -2.39325,0 -3.6576,-1.8288 -1.24178,-1.8288 -1.24178,-4.4704 v -2.14489 q 0,-1.69334 0.49671,-3.07058 0.51929,-1.39982 1.64818,-2.30293 1.15146,-0.92569 2.75449,-0.92569 z m -2.6416,6.14115 v 2.46098 q 0,1.76107 0.72248,2.82222 0.72249,1.06116 1.91912,1.06116 1.19662,0 1.91911,-1.06116 0.72249,-1.06115 0.72249,-2.82222 v -2.46098 q 0,-1.76106 -0.72249,-2.82222 -0.72249,-1.06115 -1.91911,-1.06115 -1.19663,0 -1.91912,1.06115 -0.72248,1.06116 -0.72248,2.82222 z" />
      <path
         id="path945"
         style="font-style:normal;font-variant:normal;font-weight:bold;font-stretch:normal;font-size:22.57777786px;font-family:FreeMono;-inkscape-font-specification:'FreeMono, Bold';font-variant-ligatures:normal;font-variant-caps:normal;font-variant-numeric:normal;font-feature-settings:normal;text-align:start;writing-mode:lr-tb;text-anchor:start;fill:#008000;stroke-width:0.26458332"
         d="m 136.5657,245.69629 q 0,-0.65475 0.38382,-0.88053 0.38382,-0.24836 1.10631,-0.24836 h 2.28036 v -9.66329 l -1.85138,1.30951 q -0.33867,0.29352 -0.92569,0.29352 -0.38382,0 -0.67733,-0.24836 -0.27094,-0.24836 -0.27094,-0.65476 0,-0.36124 0.15805,-0.58702 0.15804,-0.24835 0.54186,-0.51929 l 3.048,-2.07715 h 2.2352 v 12.14684 h 2.28036 q 1.49013,0 1.49013,1.12889 0,1.12889 -1.49013,1.12889 h -6.81849 q -1.49013,0 -1.49013,-1.12889 z" />
      <path
         id="path947"
         style="font-style:normal;font-variant:normal;font-weight:bold;font-stretch:normal;font-size:22.57777786px;font-family:FreeMono;-inkscape-font-specification:'FreeMono, Bold';font-variant-ligatures:normal;font-variant-caps:normal;font-variant-numeric:normal;font-feature-settings:normal;text-align:start;writing-mode:lr-tb;text-anchor:start;fill:#008000;stroke-width:0.26458332"
         d="m 155.00292,232.42056 q 2.39324,0 3.63502,1.8288 1.26435,1.8288 1.26435,4.4704 v 2.14489 q 0,1.69333 -0.51928,3.09315 -0.49672,1.37725 -1.64818,2.30294 -1.12889,0.90311 -2.73191,0.90311 -2.39325,0 -3.6576,-1.8288 -1.24178,-1.8288 -1.24178,-4.4704 v -2.14489 q 0,-1.69334 0.49671,-3.07058 0.51929,-1.39982 1.64818,-2.30293 1.15146,-0.92569 2.75449,-0.92569 z m -2.6416,6.14115 v 2.46098 q 0,1.76107 0.72249,2.82222 0.72248,1.06116 1.91911,1.06116 1.19662,0 1.91911,-1.06116 0.72249,-1.06115 0.72249,-2.82222 v -2.46098 q 0,-1.76106 -0.72249,-2.82222 -0.72249,-1.06115 -1.91911,-1.06115 -1.19663,0 -1.91911,1.06115 -0.72249,1.06116 -0.72249,2.82222 z" />
      <path
         id="path949"
         style="font-style:normal;font-variant:normal;font-weight:bold;font-stretch:normal;font-size:22.57777786px;font-family:FreeMono;-inkscape-font-specification:'FreeMono, Bold';font-variant-ligatures:normal;font-variant-caps:normal;font-variant-numeric:normal;font-feature-settings:normal;text-align:start;writing-mode:lr-tb;text-anchor:start;fill:#008000;stroke-width:0.26458332"
         d="m 163.64139,245.69629 q 0,-0.65475 0.38382,-0.88053 0.38382,-0.24836 1.10631,-0.24836 h 2.28036 v -9.66329 l -1.85138,1.30951 q -0.33867,0.29352 -0.92569,0.29352 -0.38382,0 -0.67733,-0.24836 -0.27094,-0.24836 -0.27094,-0.65476 0,-0.36124 0.15805,-0.58702 0.15804,-0.24835 0.54187,-0.51929 l 3.048,-2.07715 h 2.2352 v 12.14684 h 2.28035 q 1.49013,0 1.49013,1.12889 0,1.12889 -1.49013,1.12889 h -6.81849 q -1.49013,0 -1.49013,-1.12889 z" />
      <path
         id="path951"
         style="font-style:normal;font-variant:normal;font-weight:bold;font-stretch:normal;font-size:22.57777786px;font-family:FreeMono;-inkscape-font-specification:'FreeMono, Bold';font-variant-ligatures:normal;font-variant-caps:normal;font-variant-numeric:normal;font-feature-settings:normal;text-align:start;writing-mode:lr-tb;text-anchor:start;fill:#008000;stroke-width:0.26458332"
         d="m 182.07862,232.42056 q 2.39324,0 3.63502,1.8288 1.26435,1.8288 1.26435,4.4704 v 2.14489 q 0,1.69333 -0.51929,3.09315 -0.49671,1.37725 -1.64817,2.30294 -1.12889,0.90311 -2.73191,0.90311 -2.39325,0 -3.6576,-1.8288 -1.24178,-1.8288 -1.24178,-4.4704 v -2.14489 q 0,-1.69334 0.49671,-3.07058 0.51929,-1.39982 1.64818,-2.30293 1.15146,-0.92569 2.75449,-0.92569 z m -2.6416,6.14115 v 2.46098 q 0,1.76107 0.72248,2.82222 0.72249,1.06116 1.91912,1.06116 1.19662,0 1.91911,-1.06116 0.72249,-1.06115 0.72249,-2.82222 v -2.46098 q 0,-1.76106 -0.72249,-2.82222 -0.72249,-1.06115 -1.91911,-1.06115 -1.19663,0 -1.91912,1.06115 -0.72248,1.06116 -0.72248,2.82222 z" />
      <path
         id="path953"
         style="stroke-width:0.26458332"
         d="m 190.7171,245.69629 q 0,-0.65475 0.38382,-0.88053 0.38382,-0.24836 1.10631,-0.24836 h 2.28035 v -9.66329 l -1.85137,1.30951 q -0.33867,0.29352 -0.92569,0.29352 -0.38382,0 -0.67734,-0.24836 -0.27093,-0.24836 -0.27093,-0.65476 0,-0.36124 0.15805,-0.58702 0.15804,-0.24835 0.54186,-0.51929 l 3.048,-2.07715 h 2.2352 v 12.14684 h 2.28036 q 1.49013,0 1.49013,1.12889 0,1.12889 -1.49013,1.12889 h -6.81849 q -1.49013,0 -1.49013,-1.12889 z" />
      <path
         id="path955"
         style="stroke-width:0.26458332"
         d="m 41.800779,273.9185 q 0,-0.65475 0.383822,-0.88053 0.383823,-0.24835 1.106312,-0.24835 h 2.280355 v -9.66329 l -1.851378,1.30951 q -0.338666,0.29351 -0.925689,0.29351 -0.383822,0 -0.677333,-0.24836 -0.270933,-0.24835 -0.270933,-0.65475 0,-0.36125 0.158044,-0.58702 0.158045,-0.24836 0.541867,-0.51929 l 3.048,-2.07716 h 2.2352 v 12.14685 h 2.280355 q 1.490134,0 1.490134,1.12888 0,1.12889 -1.490134,1.12889 h -6.818488 q -1.490134,0 -1.490134,-1.12889 z" />
      <path
         id="path957"
         style="stroke-width:0.26458332"
         d="m 55.338625,273.9185 q 0,-0.65475 0.383822,-0.88053 0.383822,-0.24835 1.106311,-0.24835 h 2.280356 v -9.66329 l -1.851378,1.30951 q -0.338667,0.29351 -0.925689,0.29351 -0.383822,0 -0.677333,-0.24836 -0.270934,-0.24835 -0.270934,-0.65475 0,-0.36125 0.158045,-0.58702 0.158044,-0.24836 0.541866,-0.51929 l 3.048,-2.07716 h 2.2352 v 12.14685 h 2.280356 q 1.490133,0 1.490133,1.12888 0,1.12889 -1.490133,1.12889 h -6.818489 q -1.490133,0 -1.490133,-1.12889 z" />
      <path
         id="path959"
         style="stroke-width:0.26458332"
         d="m 68.876474,273.9185 q 0,-0.65475 0.383822,-0.88053 0.383823,-0.24835 1.106312,-0.24835 h 2.280355 v -9.66329 l -1.851378,1.30951 q -0.338666,0.29351 -0.925689,0.29351 -0.383822,0 -0.677333,-0.24836 -0.270933,-0.24835 -0.270933,-0.65475 0,-0.36125 0.158044,-0.58702 0.158045,-0.24836 0.541867,-0.51929 l 3.048,-2.07716 h 2.2352 v 12.14685 h 2.280355 q 1.490134,0 1.490134,1.12888 0,1.12889 -1.490134,1.12889 h -6.818488 q -1.490134,0 -1.490134,-1.12889 z" />
      <path
         id="path961"
         style="stroke-width:0.26458332"
         d="m 82.414324,273.9185 q 0,-0.65475 0.383822,-0.88053 0.383822,-0.24835 1.106311,-0.24835 h 2.280356 v -9.66329 l -1.851378,1.30951 q -0.338667,0.29351 -0.925689,0.29351 -0.383822,0 -0.677333,-0.24836 -0.270934,-0.24835 -0.270934,-0.65475 0,-0.36125 0.158045,-0.58702 0.158044,-0.24836 0.541866,-0.51929 l 3.048,-2.07716 h 2.2352 v 12.14685 h 2.280356 q 1.490133,0 1.490133,1.12888 0,1.12889 -1.490133,1.12889 h -6.818489 q -1.490133,0 -1.490133,-1.12889 z" />
      <path
         id="path963"
         style="stroke-width:0.26458332"
         d="m 95.952165,273.9185 q 0,-0.65475 0.383823,-0.88053 0.383822,-0.24835 1.106311,-0.24835 h 2.280355 v -9.66329 l -1.851377,1.30951 q -0.338667,0.29351 -0.925689,0.29351 -0.383823,0 -0.677334,-0.24836 -0.270933,-0.24835 -0.270933,-0.65475 0,-0.36125 0.158044,-0.58702 0.158045,-0.24836 0.541867,-0.51929 l 3.048,-2.07716 h 2.235198 v 12.14685 h 2.28036 q 1.49013,0 1.49013,1.12888 0,1.12889 -1.49013,1.12889 h -6.818491 q -1.490134,0 -1.490134,-1.12889 z" />
      <path
         id="path965"
         style="stroke-width:0.26458332"
         d="m 109.49001,273.9185 q 0,-0.65475 0.38383,-0.88053 0.38382,-0.24835 1.10631,-0.24835 h 2.28035 v -9.66329 l -1.85137,1.30951 q -0.33867,0.29351 -0.92569,0.29351 -0.38383,0 -0.67734,-0.24836 -0.27093,-0.24835 -0.27093,-0.65475 0,-0.36125 0.15804,-0.58702 0.15805,-0.24836 0.54187,-0.51929 l 3.048,-2.07716 h 2.2352 v 12.14685 h 2.28036 q 1.49013,0 1.49013,1.12888 0,1.12889 -1.49013,1.12889 h -6.81849 q -1.49014,0 -1.49014,-1.12889 z" />
      <path
         id="path967"
         style="stroke-width:0.26458332"
         d="m 123.02786,273.9185 q 0,-0.65475 0.38383,-0.88053 0.38382,-0.24835 1.10631,-0.24835 h 2.28035 v -9.66329 l -1.85137,1.30951 q -0.33867,0.29351 -0.92569,0.29351 -0.38383,0 -0.67734,-0.24836 -0.27093,-0.24835 -0.27093,-0.65475 0,-0.36125 0.15804,-0.58702 0.15805,-0.24836 0.54187,-0.51929 l 3.048,-2.07716 h 2.2352 v 12.14685 h 2.28036 q 1.49013,0 1.49013,1.12888 0,1.12889 -1.49013,1.12889 H 124.518 q -1.49014,0 -1.49014,-1.12889 z" />
      <path
         id="path969"
         style="stroke-width:0.26458332"
         d="m 136.56571,273.9185 q 0,-0.65475 0.38383,-0.88053 0.38382,-0.24835 1.10631,-0.24835 h 2.28035 v -9.66329 l -1.85138,1.30951 q -0.33866,0.29351 -0.92568,0.29351 -0.38383,0 -0.67734,-0.24836 -0.27093,-0.24835 -0.27093,-0.65475 0,-0.36125 0.15804,-0.58702 0.15805,-0.24836 0.54187,-0.51929 l 3.048,-2.07716 h 2.2352 v 12.14685 h 2.28036 q 1.49013,0 1.49013,1.12888 0,1.12889 -1.49013,1.12889 h -6.81849 q -1.49014,0 -1.49014,-1.12889 z" />
      <path
         id="path971"
         style="stroke-width:0.26458332"
         d="m 150.10356,273.9185 q 0,-0.65475 0.38383,-0.88053 0.38382,-0.24835 1.10631,-0.24835 h 2.28035 v -9.66329 l -1.85138,1.30951 q -0.33866,0.29351 -0.92568,0.29351 -0.38383,0 -0.67734,-0.24836 -0.27093,-0.24835 -0.27093,-0.65475 0,-0.36125 0.15804,-0.58702 0.15805,-0.24836 0.54187,-0.51929 l 3.048,-2.07716 h 2.2352 v 12.14685 h 2.28036 q 1.49013,0 1.49013,1.12888 0,1.12889 -1.49013,1.12889 h -6.81849 q -1.49014,0 -1.49014,-1.12889 z" />
      <path
         id="path973"
         style="stroke-width:0.26458332"
         d="m 163.6414,273.9185 q 0,-0.65475 0.38383,-0.88053 0.38382,-0.24835 1.10631,-0.24835 h 2.28035 v -9.66329 l -1.85137,1.30951 q -0.33867,0.29351 -0.92569,0.29351 -0.38383,0 -0.67734,-0.24836 -0.27093,-0.24835 -0.27093,-0.65475 0,-0.36125 0.15804,-0.58702 0.15805,-0.24836 0.54187,-0.51929 l 3.048,-2.07716 h 2.2352 v 12.14685 h 2.28036 q 1.49013,0 1.49013,1.12888 0,1.12889 -1.49013,1.12889 h -6.81849 q -1.49014,0 -1.49014,-1.12889 z" />
      <path
         id="path975"
         style="stroke-width:0.26458332"
         d="m 177.17925,273.9185 q 0,-0.65475 0.38382,-0.88053 0.38382,-0.24835 1.10631,-0.24835 h 2.28036 v -9.66329 l -1.85138,1.30951 q -0.33867,0.29351 -0.92569,0.29351 -0.38382,0 -0.67733,-0.24836 -0.27094,-0.24835 -0.27094,-0.65475 0,-0.36125 0.15805,-0.58702 0.15804,-0.24836 0.54186,-0.51929 l 3.048,-2.07716 h 2.2352 v 12.14685 h 2.28036 q 1.49013,0 1.49013,1.12888 0,1.12889 -1.49013,1.12889 h -6.81849 q -1.49013,0 -1.49013,-1.12889 z" />
      <path
         id="path977"
         style="stroke-width:0.26458332"
         d="m 190.7171,273.9185 q 0,-0.65475 0.38383,-0.88053 0.38382,-0.24835 1.10631,-0.24835 h 2.28035 v -9.66329 l -1.85138,1.30951 q -0.33866,0.29351 -0.92568,0.29351 -0.38383,0 -0.67734,-0.24836 -0.27093,-0.24835 -0.27093,-0.65475 0,-0.36125 0.15804,-0.58702 0.15805,-0.24836 0.54187,-0.51929 l 3.048,-2.07716 h 2.2352 v 12.14685 h 2.28036 q 1.49013,0 1.49013,1.12888 0,1.12889 -1.49013,1.12889 h -6.81849 q -1.49014,0 -1.49014,-1.12889 z" />
      <path
         id="path979"
         style="stroke-width:0.26458332"
         d="m 204.25495,273.9185 q 0,-0.65475 0.38382,-0.88053 0.38382,-0.24835 1.10631,-0.24835 h 2.28035 v -9.66329 l -1.85137,1.30951 q -0.33867,0.29351 -0.92569,0.29351 -0.38382,0 -0.67734,-0.24836 -0.27093,-0.24835 -0.27093,-0.65475 0,-0.36125 0.15805,-0.58702 0.15804,-0.24836 0.54186,-0.51929 l 3.048,-2.07716 h 2.2352 v 12.14685 h 2.28036 q 1.49013,0 1.49013,1.12888 0,1.12889 -1.49013,1.12889 h -6.81849 q -1.49013,0 -1.49013,-1.12889 z" />
    </g>
    <text
       id="text1129"
       y="148.83333"
       x="63.5"
       style="font-style:normal;font-weight:normal;font-size:10.58333302px;line-height:1.25;font-family:sans-serif;letter-spacing:0px;word-spacing:0px;fill:#000000;fill-opacity:1;stroke:none;stroke-width:0.26458332"
       xml:space="preserve"><tspan
         style="stroke-width:0.26458332"
         y="148.83333"
         x="63.5"
         id="tspan1127">                          </tspan></text>
  </g>
</svg>
